<mxfile host="app.diagrams.net" modified="2023-09-23T07:57:24.616Z" agent="Mozilla/5.0 (Windows NT 10.0; Win64; x64) AppleWebKit/537.36 (KHTML, like Gecko) Chrome/117.0.0.0 Safari/537.36" etag="ABErwy9AmZ0e0LF7APb6" version="21.8.1" type="device">
  <diagram name="Page-1" id="uH4CZhU5qvEBTP2_rjvu">
    <mxGraphModel dx="1221" dy="633" grid="1" gridSize="10" guides="1" tooltips="1" connect="1" arrows="1" fold="1" page="1" pageScale="1" pageWidth="850" pageHeight="1100" math="0" shadow="0">
      <root>
        <mxCell id="0" />
        <mxCell id="1" parent="0" />
        <mxCell id="j7mwIBKBdc2u1mDZkIYe-1" value="Mulai" style="ellipse;whiteSpace=wrap;html=1;" parent="1" vertex="1">
          <mxGeometry x="90" y="90" width="80" height="50" as="geometry" />
        </mxCell>
        <mxCell id="j7mwIBKBdc2u1mDZkIYe-2" value="" style="endArrow=classic;html=1;rounded=0;" parent="1" edge="1">
          <mxGeometry width="50" height="50" relative="1" as="geometry">
            <mxPoint x="170" y="120" as="sourcePoint" />
            <mxPoint x="230" y="120" as="targetPoint" />
          </mxGeometry>
        </mxCell>
        <mxCell id="j7mwIBKBdc2u1mDZkIYe-3" value="Masukan tanggal lahir = x&lt;br&gt;Masukan Bulan lahir = x&lt;br&gt;Masukan Tahun Lahir = x" style="shape=hexagon;perimeter=hexagonPerimeter2;whiteSpace=wrap;html=1;fixedSize=1;" parent="1" vertex="1">
          <mxGeometry x="230" y="70" width="170" height="100" as="geometry" />
        </mxCell>
        <mxCell id="j7mwIBKBdc2u1mDZkIYe-4" value="&lt;p style=&quot;margin-left:18,0000pt;mso-para-margin-left:0,0000gd;line-height:150%;&quot; class=&quot;MsoNormal&quot;&gt;Umur bulan = selisih tahun * 12 + selisih bulan&lt;span style=&quot;mso-spacerun:&#39;yes&#39;;font-family:Arial;mso-fareast-font-family:&#39;DejaVu Sans&#39;;&lt;br/&gt;font-size:12,0000pt;&quot;&gt;&lt;/span&gt;&lt;/p&gt;" style="rounded=0;whiteSpace=wrap;html=1;" parent="1" vertex="1">
          <mxGeometry x="480" y="85" width="410" height="70" as="geometry" />
        </mxCell>
        <mxCell id="j7mwIBKBdc2u1mDZkIYe-5" value="" style="endArrow=classic;html=1;rounded=0;" parent="1" edge="1">
          <mxGeometry width="50" height="50" relative="1" as="geometry">
            <mxPoint x="400" y="120" as="sourcePoint" />
            <mxPoint x="480" y="120" as="targetPoint" />
          </mxGeometry>
        </mxCell>
        <mxCell id="j7mwIBKBdc2u1mDZkIYe-6" value="&lt;p class=&quot;MsoNormal&quot;&gt;Umur hari = selisih hari&lt;/p&gt;" style="rounded=0;whiteSpace=wrap;html=1;" parent="1" vertex="1">
          <mxGeometry x="580" y="210" width="210" height="60" as="geometry" />
        </mxCell>
        <mxCell id="j7mwIBKBdc2u1mDZkIYe-8" value="" style="endArrow=classic;html=1;rounded=0;" parent="1" edge="1">
          <mxGeometry width="50" height="50" relative="1" as="geometry">
            <mxPoint x="680" y="155" as="sourcePoint" />
            <mxPoint x="680" y="210" as="targetPoint" />
          </mxGeometry>
        </mxCell>
        <mxCell id="j7mwIBKBdc2u1mDZkIYe-9" value="" style="endArrow=classic;html=1;rounded=0;entryX=0.55;entryY=0.024;entryDx=0;entryDy=0;entryPerimeter=0;" parent="1" edge="1" target="j7mwIBKBdc2u1mDZkIYe-10">
          <mxGeometry width="50" height="50" relative="1" as="geometry">
            <mxPoint x="680" y="270" as="sourcePoint" />
            <mxPoint x="680" y="330" as="targetPoint" />
          </mxGeometry>
        </mxCell>
        <mxCell id="j7mwIBKBdc2u1mDZkIYe-10" value="Umur dalam bulan&lt;br&gt;dan hari" style="shape=parallelogram;perimeter=parallelogramPerimeter;whiteSpace=wrap;html=1;fixedSize=1;" parent="1" vertex="1">
          <mxGeometry x="600" y="335" width="150" height="70" as="geometry" />
        </mxCell>
        <mxCell id="j7mwIBKBdc2u1mDZkIYe-15" value="" style="endArrow=classic;html=1;rounded=0;" parent="1" edge="1">
          <mxGeometry width="50" height="50" relative="1" as="geometry">
            <mxPoint x="610" y="359.5" as="sourcePoint" />
            <mxPoint x="540" y="359.5" as="targetPoint" />
          </mxGeometry>
        </mxCell>
        <mxCell id="j7mwIBKBdc2u1mDZkIYe-20" value="Selesai" style="ellipse;whiteSpace=wrap;html=1;" parent="1" vertex="1">
          <mxGeometry x="460" y="335" width="80" height="50" as="geometry" />
        </mxCell>
      </root>
    </mxGraphModel>
  </diagram>
</mxfile>
